<?xml version="1.0" encoding="utf-8"?>
<!-- Generator: Adobe Illustrator 26.5.0, SVG Export Plug-In . SVG Version: 6.00 Build 0)  -->
<svg version="1.1" id="Layer_1" xmlns="http://www.w3.org/2000/svg" xmlns:xlink="http://www.w3.org/1999/xlink" x="0px" y="0px"
	 viewBox="0 0 24 24" style="enable-background:new 0 0 24 24;" xml:space="preserve">
<style type="text/css">
	.st0{fill-rule:evenodd;clip-rule:evenodd;fill:url(#Combined-Shape_00000067946231325613083070000014499589385856040871_);}
</style>
<g id="Homepage">
	<g id="Gravity-Team---Homepage---3rd-Iteration---Upper-Navigation-1.2" transform="translate(-796.000000, -353.000000)">
		<g id="popup" transform="translate(457.000000, 230.000000)">
			<g id="type-of-clients" transform="translate(64.000000, 158.000000)">
				<g id="icon_x2F_arrow-in-circle_x2F_hover" transform="translate(334.000000, 0.000000)">
					
						<linearGradient id="Combined-Shape_00000027595709979509704930000008821186298134653355_" gradientUnits="userSpaceOnUse" x1="-1268" y1="675.8333" x2="-1267" y2="674.8333" gradientTransform="matrix(24 0 0 -24 30373 16185)">
						<stop  offset="0" style="stop-color:#665DCD"/>
						<stop  offset="0.4476" style="stop-color:#5FA4E6"/>
						<stop  offset="1" style="stop-color:#D2AB67"/>
					</linearGradient>
					
						<path id="Combined-Shape" style="fill-rule:evenodd;clip-rule:evenodd;fill:url(#Combined-Shape_00000027595709979509704930000008821186298134653355_);" d="
						M-47-35c6.6,0,12,5.4,12,12s-5.4,12-12,12s-12-5.4-12-12S-53.6-35-47-35z M-46.6-26.5c-0.2,0.1-0.2,0.4,0,0.6l2.6,2.7h-6.6
						c-0.2,0-0.4,0.2-0.4,0.4s0.2,0.4,0.4,0.4h6.6l-2.6,2.7c-0.1,0.2-0.1,0.4,0,0.6c0.2,0.2,0.4,0.1,0.6,0l3.2-3.4
						c0.1-0.1,0.1-0.2,0.1-0.3c0-0.1-0.1-0.2-0.1-0.3l-3.2-3.4C-46.2-26.6-46.4-26.6-46.6-26.5z"/>
				</g>
			</g>
		</g>
	</g>
</g>
</svg>
