<svg width="80" height="80" viewBox="0 0 80 80" fill="none" xmlns="http://www.w3.org/2000/svg">
<circle cx="40" cy="40" r="40" fill="#5111AD" fill-opacity="0.1"/>
<path d="M18.6537 41.804C18.6537 42.228 18.5457 42.608 18.3297 42.944C18.1137 43.272 17.8217 43.532 17.4537 43.724C17.0937 43.908 16.6977 44 16.2657 44H12.2457V35.48H16.3497C16.7497 35.48 17.0937 35.588 17.3817 35.804C17.6777 36.012 17.9017 36.284 18.0537 36.62C18.2137 36.948 18.2937 37.292 18.2937 37.652C18.2937 38.076 18.1857 38.468 17.9697 38.828C17.7537 39.188 17.4537 39.456 17.0697 39.632C17.5577 39.776 17.9417 40.044 18.2217 40.436C18.5097 40.828 18.6537 41.284 18.6537 41.804ZM17.8137 41.66C17.8137 41.372 17.7497 41.108 17.6217 40.868C17.4937 40.62 17.3177 40.42 17.0937 40.268C16.8777 40.116 16.6297 40.04 16.3497 40.04H13.0857V43.268H16.2657C16.5537 43.268 16.8137 43.192 17.0457 43.04C17.2777 42.888 17.4617 42.692 17.5977 42.452C17.7417 42.204 17.8137 41.94 17.8137 41.66ZM13.0857 36.212V39.356H16.0137C16.2937 39.356 16.5417 39.284 16.7577 39.14C16.9737 38.988 17.1457 38.792 17.2737 38.552C17.4017 38.312 17.4657 38.056 17.4657 37.784C17.4657 37.496 17.4057 37.236 17.2857 37.004C17.1657 36.764 17.0017 36.572 16.7937 36.428C16.5857 36.284 16.3497 36.212 16.0857 36.212H13.0857ZM22.7339 44.12C22.2859 44.12 21.8699 44.036 21.4859 43.868C21.1099 43.692 20.7819 43.456 20.5019 43.16C20.2299 42.856 20.0179 42.512 19.8659 42.128C19.7139 41.736 19.6379 41.324 19.6379 40.892C19.6379 40.444 19.7139 40.028 19.8659 39.644C20.0179 39.252 20.2339 38.908 20.5139 38.612C20.7939 38.308 21.1219 38.072 21.4979 37.904C21.8819 37.728 22.2979 37.64 22.7459 37.64C23.1939 37.64 23.6059 37.728 23.9819 37.904C24.3579 38.072 24.6859 38.308 24.9659 38.612C25.2459 38.908 25.4619 39.252 25.6139 39.644C25.7659 40.028 25.8419 40.444 25.8419 40.892C25.8419 41.324 25.7659 41.736 25.6139 42.128C25.4619 42.512 25.2459 42.856 24.9659 43.16C24.6939 43.456 24.3659 43.692 23.9819 43.868C23.6059 44.036 23.1899 44.12 22.7339 44.12ZM20.4659 40.904C20.4659 41.368 20.5659 41.792 20.7659 42.176C20.9739 42.552 21.2499 42.852 21.5939 43.076C21.9379 43.292 22.3179 43.4 22.7339 43.4C23.1499 43.4 23.5299 43.288 23.8739 43.064C24.2179 42.84 24.4939 42.536 24.7019 42.152C24.9099 41.76 25.0139 41.336 25.0139 40.88C25.0139 40.416 24.9099 39.992 24.7019 39.608C24.4939 39.224 24.2179 38.92 23.8739 38.696C23.5299 38.472 23.1499 38.36 22.7339 38.36C22.3179 38.36 21.9379 38.476 21.5939 38.708C21.2579 38.94 20.9859 39.248 20.7779 39.632C20.5699 40.008 20.4659 40.432 20.4659 40.904ZM29.8706 44.12C29.4226 44.12 29.0066 44.036 28.6226 43.868C28.2466 43.692 27.9186 43.456 27.6386 43.16C27.3666 42.856 27.1546 42.512 27.0026 42.128C26.8506 41.736 26.7746 41.324 26.7746 40.892C26.7746 40.444 26.8506 40.028 27.0026 39.644C27.1546 39.252 27.3706 38.908 27.6506 38.612C27.9306 38.308 28.2586 38.072 28.6346 37.904C29.0186 37.728 29.4346 37.64 29.8826 37.64C30.3306 37.64 30.7426 37.728 31.1186 37.904C31.4946 38.072 31.8226 38.308 32.1026 38.612C32.3826 38.908 32.5986 39.252 32.7506 39.644C32.9026 40.028 32.9786 40.444 32.9786 40.892C32.9786 41.324 32.9026 41.736 32.7506 42.128C32.5986 42.512 32.3826 42.856 32.1026 43.16C31.8306 43.456 31.5026 43.692 31.1186 43.868C30.7426 44.036 30.3266 44.12 29.8706 44.12ZM27.6026 40.904C27.6026 41.368 27.7026 41.792 27.9026 42.176C28.1106 42.552 28.3866 42.852 28.7306 43.076C29.0746 43.292 29.4546 43.4 29.8706 43.4C30.2866 43.4 30.6666 43.288 31.0106 43.064C31.3546 42.84 31.6306 42.536 31.8386 42.152C32.0466 41.76 32.1506 41.336 32.1506 40.88C32.1506 40.416 32.0466 39.992 31.8386 39.608C31.6306 39.224 31.3546 38.92 31.0106 38.696C30.6666 38.472 30.2866 38.36 29.8706 38.36C29.4546 38.36 29.0746 38.476 28.7306 38.708C28.3946 38.94 28.1226 39.248 27.9146 39.632C27.7066 40.008 27.6026 40.432 27.6026 40.904ZM37.2496 43.7C37.1856 43.724 37.0856 43.768 36.9496 43.832C36.8136 43.896 36.6496 43.952 36.4576 44C36.2656 44.048 36.0576 44.072 35.8336 44.072C35.6016 44.072 35.3816 44.028 35.1736 43.94C34.9736 43.852 34.8136 43.72 34.6936 43.544C34.5736 43.36 34.5136 43.136 34.5136 42.872V38.396H33.6496V37.748H34.5136V35.636H35.3296V37.748H36.7696V38.396H35.3296V42.644C35.3456 42.868 35.4256 43.036 35.5696 43.148C35.7216 43.26 35.8936 43.316 36.0856 43.316C36.3096 43.316 36.5136 43.28 36.6976 43.208C36.8816 43.128 36.9936 43.072 37.0336 43.04L37.2496 43.7ZM40.8757 44.12C40.4197 44.12 39.9997 44.036 39.6157 43.868C39.2397 43.692 38.9077 43.452 38.6197 43.148C38.3397 42.844 38.1197 42.496 37.9597 42.104C37.8077 41.712 37.7317 41.296 37.7317 40.856C37.7317 40.264 37.8637 39.724 38.1277 39.236C38.3917 38.748 38.7597 38.36 39.2317 38.072C39.7037 37.784 40.2477 37.64 40.8637 37.64C41.4477 37.64 41.9637 37.776 42.4117 38.048C42.8597 38.312 43.1917 38.672 43.4077 39.128L42.6157 39.38C42.4397 39.06 42.1917 38.812 41.8717 38.636C41.5597 38.452 41.2117 38.36 40.8277 38.36C40.4117 38.36 40.0317 38.468 39.6877 38.684C39.3437 38.9 39.0677 39.196 38.8597 39.572C38.6597 39.948 38.5597 40.376 38.5597 40.856C38.5597 41.328 38.6637 41.756 38.8717 42.14C39.0797 42.524 39.3557 42.832 39.6997 43.064C40.0437 43.288 40.4237 43.4 40.8397 43.4C41.1117 43.4 41.3717 43.352 41.6197 43.256C41.8757 43.16 42.0957 43.032 42.2797 42.872C42.4717 42.704 42.5997 42.524 42.6637 42.332L43.4677 42.572C43.3557 42.868 43.1677 43.136 42.9037 43.376C42.6477 43.608 42.3437 43.792 41.9917 43.928C41.6477 44.056 41.2757 44.12 40.8757 44.12ZM44.2456 42.2C44.2456 41.808 44.3576 41.472 44.5816 41.192C44.8056 40.904 45.1136 40.684 45.5056 40.532C45.9056 40.372 46.3656 40.292 46.8856 40.292C47.1896 40.292 47.5056 40.316 47.8336 40.364C48.1616 40.412 48.4536 40.484 48.7096 40.58V40.052C48.7096 39.524 48.5536 39.104 48.2416 38.792C47.9296 38.48 47.4976 38.324 46.9456 38.324C46.6096 38.324 46.2776 38.388 45.9496 38.516C45.6296 38.636 45.2936 38.816 44.9416 39.056L44.6296 38.48C45.0376 38.2 45.4376 37.992 45.8296 37.856C46.2216 37.712 46.6216 37.64 47.0296 37.64C47.7976 37.64 48.4056 37.86 48.8536 38.3C49.3016 38.74 49.5256 39.348 49.5256 40.124V43.016C49.5256 43.128 49.5496 43.212 49.5976 43.268C49.6456 43.316 49.7216 43.344 49.8256 43.352V44C49.7376 44.008 49.6616 44.016 49.5976 44.024C49.5336 44.032 49.4856 44.032 49.4536 44.024C49.2536 44.016 49.1016 43.952 48.9976 43.832C48.8936 43.712 48.8376 43.584 48.8296 43.448L48.8176 42.992C48.5376 43.352 48.1736 43.632 47.7256 43.832C47.2776 44.024 46.8216 44.12 46.3576 44.12C45.9576 44.12 45.5936 44.036 45.2656 43.868C44.9456 43.692 44.6936 43.46 44.5096 43.172C44.3336 42.876 44.2456 42.552 44.2456 42.2ZM48.4336 42.68C48.5216 42.568 48.5896 42.46 48.6376 42.356C48.6856 42.252 48.7096 42.16 48.7096 42.08V41.168C48.4376 41.064 48.1536 40.984 47.8576 40.928C47.5696 40.872 47.2776 40.844 46.9816 40.844C46.3976 40.844 45.9256 40.96 45.5656 41.192C45.2056 41.424 45.0256 41.74 45.0256 42.14C45.0256 42.372 45.0856 42.592 45.2056 42.8C45.3256 43 45.5016 43.168 45.7336 43.304C45.9656 43.432 46.2376 43.496 46.5496 43.496C46.9416 43.496 47.3056 43.42 47.6416 43.268C47.9856 43.116 48.2496 42.92 48.4336 42.68ZM60.5887 44H59.7727V40.508C59.7727 39.78 59.6567 39.244 59.4247 38.9C59.1927 38.556 58.8487 38.384 58.3927 38.384C57.9207 38.384 57.4967 38.552 57.1207 38.888C56.7527 39.224 56.4927 39.656 56.3407 40.184V44H55.5247V40.508C55.5247 39.772 55.4127 39.236 55.1887 38.9C54.9647 38.556 54.6207 38.384 54.1567 38.384C53.6927 38.384 53.2727 38.548 52.8967 38.876C52.5207 39.204 52.2567 39.636 52.1047 40.172V44H51.2887V37.748H52.0327V39.164C52.2967 38.676 52.6327 38.3 53.0407 38.036C53.4567 37.772 53.9167 37.64 54.4207 37.64C54.9407 37.64 55.3607 37.788 55.6807 38.084C56.0007 38.38 56.1967 38.768 56.2687 39.248C56.5567 38.72 56.9007 38.32 57.3007 38.048C57.7087 37.776 58.1687 37.64 58.6807 37.64C59.0327 37.64 59.3287 37.704 59.5687 37.832C59.8167 37.96 60.0127 38.144 60.1567 38.384C60.3087 38.616 60.4167 38.9 60.4807 39.236C60.5527 39.564 60.5887 39.932 60.5887 40.34V44ZM65.508 44.12C64.988 44.12 64.52 43.984 64.104 43.712C63.696 43.44 63.372 43.104 63.132 42.704V46.556H62.316V37.748H63.048V38.96C63.296 38.568 63.628 38.252 64.044 38.012C64.46 37.764 64.904 37.64 65.376 37.64C65.808 37.64 66.204 37.732 66.564 37.916C66.924 38.092 67.236 38.332 67.5 38.636C67.764 38.94 67.968 39.288 68.112 39.68C68.264 40.064 68.34 40.464 68.34 40.88C68.34 41.464 68.22 42.004 67.98 42.5C67.748 42.988 67.42 43.38 66.996 43.676C66.572 43.972 66.076 44.12 65.508 44.12ZM65.28 43.4C65.624 43.4 65.932 43.332 66.204 43.196C66.476 43.052 66.708 42.86 66.9 42.62C67.1 42.38 67.252 42.112 67.356 41.816C67.46 41.512 67.512 41.2 67.512 40.88C67.512 40.544 67.452 40.224 67.332 39.92C67.22 39.616 67.056 39.348 66.84 39.116C66.624 38.884 66.376 38.7 66.096 38.564C65.816 38.428 65.512 38.36 65.184 38.36C64.976 38.36 64.76 38.4 64.536 38.48C64.312 38.56 64.096 38.676 63.888 38.828C63.688 38.972 63.52 39.136 63.384 39.32C63.248 39.504 63.164 39.7 63.132 39.908V41.828C63.26 42.124 63.432 42.392 63.648 42.632C63.864 42.864 64.112 43.052 64.392 43.196C64.68 43.332 64.976 43.4 65.28 43.4Z" fill="#5111AD"/>
</svg>
