<svg width="80" height="80" viewBox="0 0 80 80" fill="none" xmlns="http://www.w3.org/2000/svg">
<circle cx="40" cy="40" r="40" fill="#5111AD" fill-opacity="0.1"/>
<path d="M27.8884 44.06C27.3204 44.06 26.7924 43.94 26.3044 43.7C25.8164 43.452 25.3924 43.12 25.0324 42.704C24.6724 42.288 24.3924 41.824 24.1924 41.312C24.0004 40.8 23.9044 40.272 23.9044 39.728C23.9044 39.152 24.0004 38.608 24.1924 38.096C24.3924 37.576 24.6684 37.116 25.0204 36.716C25.3724 36.316 25.7884 36 26.2684 35.768C26.7484 35.536 27.2724 35.42 27.8404 35.42C28.6804 35.42 29.3644 35.592 29.8924 35.936C30.4204 36.28 30.8204 36.728 31.0924 37.28L30.4444 37.712C30.1724 37.184 29.8084 36.796 29.3524 36.548C28.8964 36.3 28.3884 36.176 27.8284 36.176C27.3564 36.176 26.9284 36.276 26.5444 36.476C26.1684 36.676 25.8444 36.944 25.5724 37.28C25.3004 37.616 25.0924 37.996 24.9484 38.42C24.8124 38.844 24.7444 39.284 24.7444 39.74C24.7444 40.22 24.8244 40.676 24.9844 41.108C25.1444 41.532 25.3724 41.912 25.6684 42.248C25.9644 42.576 26.3044 42.836 26.6884 43.028C27.0804 43.212 27.5004 43.304 27.9484 43.304C28.4684 43.304 28.9604 43.176 29.4244 42.92C29.8884 42.656 30.3324 42.252 30.7564 41.708V42.596C29.9484 43.572 28.9924 44.06 27.8884 44.06ZM30.6244 40.46H28.7284V39.812H31.3324V44H30.6244V40.46ZM32.3862 42.2C32.3862 41.808 32.4982 41.472 32.7222 41.192C32.9462 40.904 33.2542 40.684 33.6462 40.532C34.0462 40.372 34.5062 40.292 35.0262 40.292C35.3302 40.292 35.6462 40.316 35.9742 40.364C36.3022 40.412 36.5942 40.484 36.8502 40.58V40.052C36.8502 39.524 36.6942 39.104 36.3822 38.792C36.0702 38.48 35.6382 38.324 35.0862 38.324C34.7502 38.324 34.4182 38.388 34.0902 38.516C33.7702 38.636 33.4342 38.816 33.0822 39.056L32.7702 38.48C33.1782 38.2 33.5782 37.992 33.9702 37.856C34.3622 37.712 34.7622 37.64 35.1702 37.64C35.9382 37.64 36.5462 37.86 36.9942 38.3C37.4422 38.74 37.6662 39.348 37.6662 40.124V43.016C37.6662 43.128 37.6902 43.212 37.7382 43.268C37.7862 43.316 37.8622 43.344 37.9662 43.352V44C37.8782 44.008 37.8022 44.016 37.7382 44.024C37.6742 44.032 37.6262 44.032 37.5942 44.024C37.3942 44.016 37.2422 43.952 37.1382 43.832C37.0342 43.712 36.9782 43.584 36.9702 43.448L36.9582 42.992C36.6782 43.352 36.3142 43.632 35.8662 43.832C35.4182 44.024 34.9622 44.12 34.4982 44.12C34.0982 44.12 33.7342 44.036 33.4062 43.868C33.0862 43.692 32.8342 43.46 32.6502 43.172C32.4742 42.876 32.3862 42.552 32.3862 42.2ZM36.5742 42.68C36.6622 42.568 36.7302 42.46 36.7782 42.356C36.8262 42.252 36.8502 42.16 36.8502 42.08V41.168C36.5782 41.064 36.2942 40.984 35.9982 40.928C35.7102 40.872 35.4182 40.844 35.1222 40.844C34.5382 40.844 34.0662 40.96 33.7062 41.192C33.3462 41.424 33.1662 41.74 33.1662 42.14C33.1662 42.372 33.2262 42.592 33.3462 42.8C33.4662 43 33.6422 43.168 33.8742 43.304C34.1062 43.432 34.3782 43.496 34.6902 43.496C35.0822 43.496 35.4462 43.42 35.7822 43.268C36.1262 43.116 36.3902 42.92 36.5742 42.68ZM48.7293 44H47.9133V40.508C47.9133 39.78 47.7973 39.244 47.5653 38.9C47.3333 38.556 46.9893 38.384 46.5333 38.384C46.0613 38.384 45.6373 38.552 45.2613 38.888C44.8933 39.224 44.6333 39.656 44.4813 40.184V44H43.6653V40.508C43.6653 39.772 43.5533 39.236 43.3293 38.9C43.1053 38.556 42.7613 38.384 42.2973 38.384C41.8333 38.384 41.4133 38.548 41.0373 38.876C40.6613 39.204 40.3973 39.636 40.2453 40.172V44H39.4293V37.748H40.1733V39.164C40.4373 38.676 40.7733 38.3 41.1813 38.036C41.5973 37.772 42.0573 37.64 42.5613 37.64C43.0813 37.64 43.5013 37.788 43.8213 38.084C44.1413 38.38 44.3373 38.768 44.4093 39.248C44.6973 38.72 45.0413 38.32 45.4413 38.048C45.8493 37.776 46.3093 37.64 46.8213 37.64C47.1733 37.64 47.4693 37.704 47.7093 37.832C47.9573 37.96 48.1533 38.144 48.2973 38.384C48.4493 38.616 48.5573 38.9 48.6213 39.236C48.6933 39.564 48.7293 39.932 48.7293 40.34V44ZM53.1566 44.12C52.7086 44.12 52.2926 44.036 51.9086 43.868C51.5246 43.692 51.1926 43.456 50.9126 43.16C50.6326 42.856 50.4126 42.508 50.2526 42.116C50.1006 41.724 50.0246 41.304 50.0246 40.856C50.0246 40.272 50.1566 39.736 50.4206 39.248C50.6926 38.76 51.0646 38.372 51.5366 38.084C52.0086 37.788 52.5446 37.64 53.1446 37.64C53.7606 37.64 54.2966 37.788 54.7526 38.084C55.2166 38.38 55.5806 38.772 55.8446 39.26C56.1086 39.74 56.2406 40.268 56.2406 40.844C56.2406 40.908 56.2406 40.972 56.2406 41.036C56.2406 41.092 56.2366 41.136 56.2286 41.168H50.8766C50.9166 41.616 51.0406 42.016 51.2486 42.368C51.4646 42.712 51.7406 42.988 52.0766 43.196C52.4206 43.396 52.7926 43.496 53.1926 43.496C53.6006 43.496 53.9846 43.392 54.3446 43.184C54.7126 42.976 54.9686 42.704 55.1126 42.368L55.8206 42.56C55.6926 42.856 55.4966 43.124 55.2326 43.364C54.9686 43.604 54.6566 43.792 54.2966 43.928C53.9446 44.056 53.5646 44.12 53.1566 44.12ZM50.8526 40.58H55.4726C55.4406 40.124 55.3166 39.724 55.1006 39.38C54.8926 39.036 54.6166 38.768 54.2726 38.576C53.9366 38.376 53.5646 38.276 53.1566 38.276C52.7486 38.276 52.3766 38.376 52.0406 38.576C51.7046 38.768 51.4286 39.04 51.2126 39.392C51.0046 39.736 50.8846 40.132 50.8526 40.58Z" fill="#5111AD"/>
</svg>
