<svg width="80" height="80" viewBox="0 0 80 80" fill="none" xmlns="http://www.w3.org/2000/svg">
<circle cx="40" cy="40" r="40" fill="#5111AD" fill-opacity="0.1"/>
<path d="M12.4996 44V35.48H16.0996C16.4676 35.48 16.8036 35.556 17.1076 35.708C17.4116 35.86 17.6756 36.068 17.8996 36.332C18.1316 36.588 18.3076 36.876 18.4276 37.196C18.5556 37.508 18.6196 37.828 18.6196 38.156C18.6196 38.564 18.5396 38.948 18.3796 39.308C18.2276 39.668 18.0076 39.972 17.7196 40.22C17.4396 40.468 17.1076 40.632 16.7236 40.712L18.8116 44H17.8636L15.8596 40.856H13.3396V44H12.4996ZM13.3396 40.112H16.1236C16.4596 40.112 16.7516 40.02 16.9996 39.836C17.2476 39.652 17.4396 39.412 17.5756 39.116C17.7116 38.812 17.7796 38.492 17.7796 38.156C17.7796 37.812 17.6996 37.496 17.5396 37.208C17.3876 36.912 17.1796 36.676 16.9156 36.5C16.6596 36.316 16.3716 36.224 16.0516 36.224H13.3396V40.112ZM22.684 44.12C22.236 44.12 21.82 44.036 21.436 43.868C21.052 43.692 20.72 43.456 20.44 43.16C20.16 42.856 19.94 42.508 19.78 42.116C19.628 41.724 19.552 41.304 19.552 40.856C19.552 40.272 19.684 39.736 19.948 39.248C20.22 38.76 20.592 38.372 21.064 38.084C21.536 37.788 22.072 37.64 22.672 37.64C23.288 37.64 23.824 37.788 24.28 38.084C24.744 38.38 25.108 38.772 25.372 39.26C25.636 39.74 25.768 40.268 25.768 40.844C25.768 40.908 25.768 40.972 25.768 41.036C25.768 41.092 25.764 41.136 25.756 41.168H20.404C20.444 41.616 20.568 42.016 20.776 42.368C20.992 42.712 21.268 42.988 21.604 43.196C21.948 43.396 22.32 43.496 22.72 43.496C23.128 43.496 23.512 43.392 23.872 43.184C24.24 42.976 24.496 42.704 24.64 42.368L25.348 42.56C25.22 42.856 25.024 43.124 24.76 43.364C24.496 43.604 24.184 43.792 23.824 43.928C23.472 44.056 23.092 44.12 22.684 44.12ZM20.38 40.58H25C24.968 40.124 24.844 39.724 24.628 39.38C24.42 39.036 24.144 38.768 23.8 38.576C23.464 38.376 23.092 38.276 22.684 38.276C22.276 38.276 21.904 38.376 21.568 38.576C21.232 38.768 20.956 39.04 20.74 39.392C20.532 39.736 20.412 40.132 20.38 40.58ZM29.079 44.12C28.567 44.12 28.091 44.036 27.651 43.868C27.211 43.7 26.831 43.444 26.511 43.1L26.847 42.524C27.199 42.852 27.551 43.092 27.903 43.244C28.263 43.388 28.643 43.46 29.043 43.46C29.531 43.46 29.927 43.364 30.231 43.172C30.535 42.972 30.687 42.688 30.687 42.32C30.687 42.072 30.611 41.884 30.459 41.756C30.315 41.62 30.103 41.512 29.823 41.432C29.551 41.344 29.223 41.252 28.839 41.156C28.407 41.036 28.043 40.912 27.747 40.784C27.459 40.648 27.239 40.48 27.087 40.28C26.943 40.072 26.871 39.804 26.871 39.476C26.871 39.068 26.971 38.732 27.171 38.468C27.379 38.196 27.659 37.992 28.011 37.856C28.371 37.712 28.771 37.64 29.211 37.64C29.691 37.64 30.115 37.716 30.483 37.868C30.851 38.02 31.151 38.232 31.383 38.504L30.987 39.056C30.763 38.8 30.495 38.612 30.183 38.492C29.879 38.364 29.539 38.3 29.163 38.3C28.907 38.3 28.663 38.336 28.431 38.408C28.199 38.472 28.007 38.584 27.855 38.744C27.711 38.896 27.639 39.108 27.639 39.38C27.639 39.604 27.695 39.78 27.807 39.908C27.919 40.028 28.087 40.132 28.311 40.22C28.535 40.3 28.811 40.388 29.139 40.484C29.611 40.612 30.023 40.744 30.375 40.88C30.727 41.008 30.999 41.176 31.191 41.384C31.383 41.592 31.479 41.884 31.479 42.26C31.479 42.844 31.259 43.3 30.819 43.628C30.379 43.956 29.799 44.12 29.079 44.12ZM35.4917 44.12C35.0437 44.12 34.6277 44.036 34.2437 43.868C33.8677 43.692 33.5397 43.456 33.2597 43.16C32.9877 42.856 32.7757 42.512 32.6237 42.128C32.4717 41.736 32.3957 41.324 32.3957 40.892C32.3957 40.444 32.4717 40.028 32.6237 39.644C32.7757 39.252 32.9917 38.908 33.2717 38.612C33.5517 38.308 33.8797 38.072 34.2557 37.904C34.6397 37.728 35.0557 37.64 35.5037 37.64C35.9517 37.64 36.3637 37.728 36.7397 37.904C37.1157 38.072 37.4437 38.308 37.7237 38.612C38.0037 38.908 38.2197 39.252 38.3717 39.644C38.5237 40.028 38.5997 40.444 38.5997 40.892C38.5997 41.324 38.5237 41.736 38.3717 42.128C38.2197 42.512 38.0037 42.856 37.7237 43.16C37.4517 43.456 37.1237 43.692 36.7397 43.868C36.3637 44.036 35.9477 44.12 35.4917 44.12ZM33.2237 40.904C33.2237 41.368 33.3237 41.792 33.5237 42.176C33.7317 42.552 34.0077 42.852 34.3517 43.076C34.6957 43.292 35.0757 43.4 35.4917 43.4C35.9077 43.4 36.2877 43.288 36.6317 43.064C36.9757 42.84 37.2517 42.536 37.4597 42.152C37.6677 41.76 37.7717 41.336 37.7717 40.88C37.7717 40.416 37.6677 39.992 37.4597 39.608C37.2517 39.224 36.9757 38.92 36.6317 38.696C36.2877 38.472 35.9077 38.36 35.4917 38.36C35.0757 38.36 34.6957 38.476 34.3517 38.708C34.0157 38.94 33.7437 39.248 33.5357 39.632C33.3277 40.008 33.2237 40.432 33.2237 40.904ZM39.9045 41.42V37.748H40.7205V41.276C40.7205 41.988 40.8405 42.52 41.0805 42.872C41.3285 43.224 41.6925 43.4 42.1725 43.4C42.4925 43.4 42.8005 43.332 43.0965 43.196C43.4005 43.052 43.6685 42.852 43.9005 42.596C44.1325 42.332 44.3085 42.028 44.4285 41.684V37.748H45.2445V43.016C45.2445 43.128 45.2685 43.212 45.3165 43.268C45.3645 43.316 45.4365 43.344 45.5325 43.352V44C45.4365 44.008 45.3605 44.012 45.3045 44.012C45.2485 44.02 45.1965 44.024 45.1485 44.024C44.9885 44.008 44.8485 43.944 44.7285 43.832C44.6165 43.72 44.5565 43.584 44.5485 43.424L44.5245 42.584C44.2525 43.064 43.8805 43.44 43.4085 43.712C42.9445 43.984 42.4405 44.12 41.8965 44.12C41.2405 44.12 40.7445 43.892 40.4085 43.436C40.0725 42.98 39.9045 42.308 39.9045 41.42ZM50.2095 38.468C49.6655 38.484 49.1855 38.636 48.7695 38.924C48.3615 39.212 48.0735 39.608 47.9055 40.112V44H47.0895V37.748H47.8575V39.248C48.0735 38.808 48.3575 38.452 48.7095 38.18C49.0695 37.908 49.4495 37.756 49.8495 37.724C49.9295 37.716 49.9975 37.712 50.0535 37.712C50.1175 37.712 50.1695 37.716 50.2095 37.724V38.468ZM53.8093 44.12C53.3533 44.12 52.9333 44.036 52.5493 43.868C52.1733 43.692 51.8413 43.452 51.5533 43.148C51.2733 42.844 51.0533 42.496 50.8933 42.104C50.7413 41.712 50.6653 41.296 50.6653 40.856C50.6653 40.264 50.7973 39.724 51.0613 39.236C51.3253 38.748 51.6933 38.36 52.1653 38.072C52.6373 37.784 53.1813 37.64 53.7973 37.64C54.3813 37.64 54.8973 37.776 55.3453 38.048C55.7933 38.312 56.1253 38.672 56.3413 39.128L55.5493 39.38C55.3733 39.06 55.1253 38.812 54.8053 38.636C54.4933 38.452 54.1453 38.36 53.7613 38.36C53.3453 38.36 52.9653 38.468 52.6213 38.684C52.2773 38.9 52.0013 39.196 51.7933 39.572C51.5933 39.948 51.4933 40.376 51.4933 40.856C51.4933 41.328 51.5973 41.756 51.8053 42.14C52.0133 42.524 52.2893 42.832 52.6333 43.064C52.9773 43.288 53.3573 43.4 53.7733 43.4C54.0453 43.4 54.3053 43.352 54.5533 43.256C54.8093 43.16 55.0293 43.032 55.2133 42.872C55.4053 42.704 55.5333 42.524 55.5973 42.332L56.4013 42.572C56.2893 42.868 56.1013 43.136 55.8373 43.376C55.5813 43.608 55.2773 43.792 54.9253 43.928C54.5813 44.056 54.2093 44.12 53.8093 44.12ZM60.3246 44.12C59.8766 44.12 59.4606 44.036 59.0766 43.868C58.6926 43.692 58.3606 43.456 58.0806 43.16C57.8006 42.856 57.5806 42.508 57.4206 42.116C57.2686 41.724 57.1926 41.304 57.1926 40.856C57.1926 40.272 57.3246 39.736 57.5886 39.248C57.8606 38.76 58.2326 38.372 58.7046 38.084C59.1766 37.788 59.7126 37.64 60.3126 37.64C60.9286 37.64 61.4646 37.788 61.9206 38.084C62.3846 38.38 62.7486 38.772 63.0126 39.26C63.2766 39.74 63.4086 40.268 63.4086 40.844C63.4086 40.908 63.4086 40.972 63.4086 41.036C63.4086 41.092 63.4046 41.136 63.3966 41.168H58.0446C58.0846 41.616 58.2086 42.016 58.4166 42.368C58.6326 42.712 58.9086 42.988 59.2446 43.196C59.5886 43.396 59.9606 43.496 60.3606 43.496C60.7686 43.496 61.1526 43.392 61.5126 43.184C61.8806 42.976 62.1366 42.704 62.2806 42.368L62.9886 42.56C62.8606 42.856 62.6646 43.124 62.4006 43.364C62.1366 43.604 61.8246 43.792 61.4646 43.928C61.1126 44.056 60.7326 44.12 60.3246 44.12ZM58.0206 40.58H62.6406C62.6086 40.124 62.4846 39.724 62.2686 39.38C62.0606 39.036 61.7846 38.768 61.4406 38.576C61.1046 38.376 60.7326 38.276 60.3246 38.276C59.9166 38.276 59.5446 38.376 59.2086 38.576C58.8726 38.768 58.5966 39.04 58.3806 39.392C58.1726 39.736 58.0526 40.132 58.0206 40.58ZM66.7196 44.12C66.2076 44.12 65.7316 44.036 65.2916 43.868C64.8516 43.7 64.4716 43.444 64.1516 43.1L64.4876 42.524C64.8396 42.852 65.1916 43.092 65.5436 43.244C65.9036 43.388 66.2836 43.46 66.6836 43.46C67.1716 43.46 67.5676 43.364 67.8716 43.172C68.1756 42.972 68.3276 42.688 68.3276 42.32C68.3276 42.072 68.2516 41.884 68.0996 41.756C67.9556 41.62 67.7436 41.512 67.4636 41.432C67.1916 41.344 66.8636 41.252 66.4796 41.156C66.0476 41.036 65.6836 40.912 65.3876 40.784C65.0996 40.648 64.8796 40.48 64.7276 40.28C64.5836 40.072 64.5116 39.804 64.5116 39.476C64.5116 39.068 64.6116 38.732 64.8116 38.468C65.0196 38.196 65.2996 37.992 65.6516 37.856C66.0116 37.712 66.4116 37.64 66.8516 37.64C67.3316 37.64 67.7556 37.716 68.1236 37.868C68.4916 38.02 68.7916 38.232 69.0236 38.504L68.6276 39.056C68.4036 38.8 68.1356 38.612 67.8236 38.492C67.5196 38.364 67.1796 38.3 66.8036 38.3C66.5476 38.3 66.3036 38.336 66.0716 38.408C65.8396 38.472 65.6476 38.584 65.4956 38.744C65.3516 38.896 65.2796 39.108 65.2796 39.38C65.2796 39.604 65.3356 39.78 65.4476 39.908C65.5596 40.028 65.7276 40.132 65.9516 40.22C66.1756 40.3 66.4516 40.388 66.7796 40.484C67.2516 40.612 67.6636 40.744 68.0156 40.88C68.3676 41.008 68.6396 41.176 68.8316 41.384C69.0236 41.592 69.1196 41.884 69.1196 42.26C69.1196 42.844 68.8996 43.3 68.4596 43.628C68.0196 43.956 67.4396 44.12 66.7196 44.12Z" fill="#5111AD"/>
</svg>
