<svg width="80" height="80" viewBox="0 0 80 80" fill="none" xmlns="http://www.w3.org/2000/svg">
<circle cx="40" cy="40" r="40" fill="#5111AD" fill-opacity="0.1"/>
<path d="M13.4771 35.54H14.2691L15.4691 38.564L16.6811 35.54H17.4851L15.9971 39.176L17.6291 43.028L20.7131 35.48H21.6251L18.0131 44H17.2691L15.4811 39.788L13.6811 44H12.9491L9.34908 35.48H10.2491L13.3451 43.028L14.9651 39.176L13.4771 35.54ZM24.5113 44.12C24.0633 44.12 23.6473 44.036 23.2633 43.868C22.8873 43.692 22.5593 43.456 22.2793 43.16C22.0073 42.856 21.7953 42.512 21.6433 42.128C21.4913 41.736 21.4153 41.324 21.4153 40.892C21.4153 40.444 21.4913 40.028 21.6433 39.644C21.7953 39.252 22.0113 38.908 22.2913 38.612C22.5713 38.308 22.8993 38.072 23.2753 37.904C23.6593 37.728 24.0753 37.64 24.5233 37.64C24.9713 37.64 25.3833 37.728 25.7593 37.904C26.1353 38.072 26.4633 38.308 26.7433 38.612C27.0233 38.908 27.2393 39.252 27.3913 39.644C27.5433 40.028 27.6193 40.444 27.6193 40.892C27.6193 41.324 27.5433 41.736 27.3913 42.128C27.2393 42.512 27.0233 42.856 26.7433 43.16C26.4713 43.456 26.1433 43.692 25.7593 43.868C25.3833 44.036 24.9673 44.12 24.5113 44.12ZM22.2433 40.904C22.2433 41.368 22.3433 41.792 22.5433 42.176C22.7513 42.552 23.0273 42.852 23.3713 43.076C23.7153 43.292 24.0953 43.4 24.5113 43.4C24.9273 43.4 25.3073 43.288 25.6513 43.064C25.9953 42.84 26.2713 42.536 26.4793 42.152C26.6873 41.76 26.7913 41.336 26.7913 40.88C26.7913 40.416 26.6873 39.992 26.4793 39.608C26.2713 39.224 25.9953 38.92 25.6513 38.696C25.3073 38.472 24.9273 38.36 24.5113 38.36C24.0953 38.36 23.7153 38.476 23.3713 38.708C23.0353 38.94 22.7633 39.248 22.5553 39.632C22.3473 40.008 22.2433 40.432 22.2433 40.904ZM32.104 38.468C31.56 38.484 31.08 38.636 30.664 38.924C30.256 39.212 29.968 39.608 29.8 40.112V44H28.984V37.748H29.752V39.248C29.968 38.808 30.252 38.452 30.604 38.18C30.964 37.908 31.344 37.756 31.744 37.724C31.824 37.716 31.892 37.712 31.948 37.712C32.012 37.712 32.064 37.716 32.104 37.724V38.468ZM37.655 44L35.339 40.796L34.007 42.044V44H33.191V35.24H34.007V41.168L37.547 37.76H38.447L35.891 40.316L38.543 44H37.655ZM41.6063 44.12C41.0943 44.12 40.6183 44.036 40.1783 43.868C39.7383 43.7 39.3583 43.444 39.0383 43.1L39.3743 42.524C39.7263 42.852 40.0783 43.092 40.4303 43.244C40.7903 43.388 41.1703 43.46 41.5703 43.46C42.0583 43.46 42.4543 43.364 42.7583 43.172C43.0623 42.972 43.2143 42.688 43.2143 42.32C43.2143 42.072 43.1383 41.884 42.9863 41.756C42.8423 41.62 42.6303 41.512 42.3503 41.432C42.0783 41.344 41.7503 41.252 41.3663 41.156C40.9343 41.036 40.5703 40.912 40.2743 40.784C39.9863 40.648 39.7663 40.48 39.6143 40.28C39.4703 40.072 39.3983 39.804 39.3983 39.476C39.3983 39.068 39.4983 38.732 39.6983 38.468C39.9063 38.196 40.1863 37.992 40.5383 37.856C40.8983 37.712 41.2983 37.64 41.7383 37.64C42.2183 37.64 42.6423 37.716 43.0103 37.868C43.3783 38.02 43.6783 38.232 43.9103 38.504L43.5143 39.056C43.2903 38.8 43.0223 38.612 42.7103 38.492C42.4063 38.364 42.0663 38.3 41.6903 38.3C41.4343 38.3 41.1903 38.336 40.9583 38.408C40.7263 38.472 40.5343 38.584 40.3823 38.744C40.2383 38.896 40.1663 39.108 40.1663 39.38C40.1663 39.604 40.2223 39.78 40.3343 39.908C40.4463 40.028 40.6143 40.132 40.8383 40.22C41.0623 40.3 41.3383 40.388 41.6663 40.484C42.1383 40.612 42.5503 40.744 42.9023 40.88C43.2543 41.008 43.5263 41.176 43.7183 41.384C43.9103 41.592 44.0063 41.884 44.0063 42.26C44.0063 42.844 43.7863 43.3 43.3463 43.628C42.9063 43.956 42.3263 44.12 41.6063 44.12ZM50.6111 44H49.7951V40.508C49.7951 39.804 49.6711 39.276 49.4231 38.924C49.1751 38.564 48.8191 38.384 48.3551 38.384C48.0511 38.384 47.7471 38.464 47.4431 38.624C47.1471 38.776 46.8831 38.988 46.6511 39.26C46.4271 39.524 46.2671 39.828 46.1711 40.172V44H45.3551V35.24H46.1711V39.164C46.4191 38.7 46.7631 38.332 47.2031 38.06C47.6511 37.78 48.1271 37.64 48.6311 37.64C48.9911 37.64 49.2951 37.704 49.5431 37.832C49.7991 37.96 50.0031 38.148 50.1551 38.396C50.3151 38.636 50.4311 38.92 50.5031 39.248C50.5751 39.568 50.6111 39.932 50.6111 40.34V44ZM55.0152 44.12C54.5672 44.12 54.1512 44.036 53.7672 43.868C53.3912 43.692 53.0632 43.456 52.7832 43.16C52.5112 42.856 52.2992 42.512 52.1472 42.128C51.9952 41.736 51.9192 41.324 51.9192 40.892C51.9192 40.444 51.9952 40.028 52.1472 39.644C52.2992 39.252 52.5152 38.908 52.7952 38.612C53.0752 38.308 53.4032 38.072 53.7792 37.904C54.1632 37.728 54.5792 37.64 55.0272 37.64C55.4752 37.64 55.8872 37.728 56.2632 37.904C56.6392 38.072 56.9672 38.308 57.2472 38.612C57.5272 38.908 57.7432 39.252 57.8952 39.644C58.0472 40.028 58.1232 40.444 58.1232 40.892C58.1232 41.324 58.0472 41.736 57.8952 42.128C57.7432 42.512 57.5272 42.856 57.2472 43.16C56.9752 43.456 56.6472 43.692 56.2632 43.868C55.8872 44.036 55.4712 44.12 55.0152 44.12ZM52.7472 40.904C52.7472 41.368 52.8472 41.792 53.0472 42.176C53.2552 42.552 53.5312 42.852 53.8752 43.076C54.2192 43.292 54.5992 43.4 55.0152 43.4C55.4312 43.4 55.8112 43.288 56.1552 43.064C56.4992 42.84 56.7752 42.536 56.9832 42.152C57.1912 41.76 57.2952 41.336 57.2952 40.88C57.2952 40.416 57.1912 39.992 56.9832 39.608C56.7752 39.224 56.4992 38.92 56.1552 38.696C55.8112 38.472 55.4312 38.36 55.0152 38.36C54.5992 38.36 54.2192 38.476 53.8752 38.708C53.5392 38.94 53.2672 39.248 53.0592 39.632C52.8512 40.008 52.7472 40.432 52.7472 40.904ZM62.6799 44.12C62.1599 44.12 61.6919 43.984 61.2759 43.712C60.8679 43.44 60.5439 43.104 60.3039 42.704V46.556H59.4879V37.748H60.2199V38.96C60.4679 38.568 60.7999 38.252 61.2159 38.012C61.6319 37.764 62.0759 37.64 62.5479 37.64C62.9799 37.64 63.3759 37.732 63.7359 37.916C64.0959 38.092 64.4079 38.332 64.6719 38.636C64.9359 38.94 65.1399 39.288 65.2839 39.68C65.4359 40.064 65.5119 40.464 65.5119 40.88C65.5119 41.464 65.3919 42.004 65.1519 42.5C64.9199 42.988 64.5919 43.38 64.1679 43.676C63.7439 43.972 63.2479 44.12 62.6799 44.12ZM62.4519 43.4C62.7959 43.4 63.1039 43.332 63.3759 43.196C63.6479 43.052 63.8799 42.86 64.0719 42.62C64.2719 42.38 64.4239 42.112 64.5279 41.816C64.6319 41.512 64.6839 41.2 64.6839 40.88C64.6839 40.544 64.6239 40.224 64.5039 39.92C64.3919 39.616 64.2279 39.348 64.0119 39.116C63.7959 38.884 63.5479 38.7 63.2679 38.564C62.9879 38.428 62.6839 38.36 62.3559 38.36C62.1479 38.36 61.9319 38.4 61.7079 38.48C61.4839 38.56 61.2679 38.676 61.0599 38.828C60.8599 38.972 60.6919 39.136 60.5559 39.32C60.4199 39.504 60.3359 39.7 60.3039 39.908V41.828C60.4319 42.124 60.6039 42.392 60.8199 42.632C61.0359 42.864 61.2839 43.052 61.5639 43.196C61.8519 43.332 62.1479 43.4 62.4519 43.4ZM68.9461 44.12C68.4341 44.12 67.9581 44.036 67.5181 43.868C67.0781 43.7 66.6981 43.444 66.3781 43.1L66.7141 42.524C67.0661 42.852 67.4181 43.092 67.7701 43.244C68.1301 43.388 68.5101 43.46 68.9101 43.46C69.3981 43.46 69.7941 43.364 70.0981 43.172C70.4021 42.972 70.5541 42.688 70.5541 42.32C70.5541 42.072 70.4781 41.884 70.3261 41.756C70.1821 41.62 69.9701 41.512 69.6901 41.432C69.4181 41.344 69.0901 41.252 68.7061 41.156C68.2741 41.036 67.9101 40.912 67.6141 40.784C67.3261 40.648 67.1061 40.48 66.9541 40.28C66.8101 40.072 66.7381 39.804 66.7381 39.476C66.7381 39.068 66.8381 38.732 67.0381 38.468C67.2461 38.196 67.5261 37.992 67.8781 37.856C68.2381 37.712 68.6381 37.64 69.0781 37.64C69.5581 37.64 69.9821 37.716 70.3501 37.868C70.7181 38.02 71.0181 38.232 71.2501 38.504L70.8541 39.056C70.6301 38.8 70.3621 38.612 70.0501 38.492C69.7461 38.364 69.4061 38.3 69.0301 38.3C68.7741 38.3 68.5301 38.336 68.2981 38.408C68.0661 38.472 67.8741 38.584 67.7221 38.744C67.5781 38.896 67.5061 39.108 67.5061 39.38C67.5061 39.604 67.5621 39.78 67.6741 39.908C67.7861 40.028 67.9541 40.132 68.1781 40.22C68.4021 40.3 68.6781 40.388 69.0061 40.484C69.4781 40.612 69.8901 40.744 70.2421 40.88C70.5941 41.008 70.8661 41.176 71.0581 41.384C71.2501 41.592 71.3461 41.884 71.3461 42.26C71.3461 42.844 71.1261 43.3 70.6861 43.628C70.2461 43.956 69.6661 44.12 68.9461 44.12Z" fill="#5111AD"/>
</svg>
